<?xml version="1.0" encoding="utf-8"?>
<svg fill="#c084fc" width="800px" height="800px" viewBox="0 0 24 24" xmlns="http://www.w3.org/2000/svg">
  <path d="M12.781 2.375c-.381-.475-1.181-.475-1.562 0l-8 10A1.001 1.001 0 0 0 4 14h4v7a1 1 0 0 0 1 1h6a1 1 0 0 0 1-1v-7h4a1.001 1.001 0 0 0 .781-1.625l-8-10zM15 12h-1v8h-4v-8H6.081L12 4.601 17.919 12H15z"/>
  <path fill="rgb(254,0,0)" stroke="rgb(254,0,0)" stroke-width="0" opacity="0.9490196078431372" d="M 14.544 14.311 C 14.67 14.319 14.785 14.334 14.867 14.46 C 15.005 14.671 15.086 15.248 15.066 15.729 C 15.042 16.309 14.791 17.239 14.618 17.72 C 14.497 18.059 14.317 18.138 14.22 18.467 C 14.089 18.91 14.464 19.862 14.021 20.234 C 13.811 20.41 13.339 20.514 12.787 20.571 C 12.673 20.865 12.536 21.178 12.406 21.425 C 12.388 21.549 12.295 21.744 12.185 21.826 C 12.155 21.849 12.116 21.868 12.074 21.884 C 12.001 21.93 11.924 21.94 11.853 21.933 C 11.791 21.939 11.732 21.937 11.687 21.926 C 11.571 21.899 11.483 21.796 11.413 21.702 C 11.341 21.606 11.296 21.539 11.264 21.354 C 11.239 21.212 11.268 20.925 11.296 20.624 C 10.71 20.614 10.211 20.574 10.015 20.532 C 9.81 20.489 9.803 20.403 9.741 20.308 C 9.678 20.213 9.663 20.204 9.641 19.96 C 9.575 19.23 9.762 15.603 9.741 14.336 C 9.729 13.605 9.625 13.079 9.637 12.751 C 9.019 12.778 8.388 12.795 8.044 12.718 C 7.612 12.622 7.303 12.373 7.173 12.245 C 7.105 12.179 7.14 12.065 7.098 12.071 C 7.029 12.081 6.883 12.515 6.749 12.619 C 6.644 12.701 6.521 12.738 6.401 12.718 C 6.265 12.696 6.055 12.564 5.978 12.444 C 5.908 12.335 5.855 12.287 5.928 12.046 C 6.136 11.364 8.424 7.834 8.715 7.393 C 8.787 7.285 8.75 7.361 8.815 7.268 C 9.028 6.964 10.292 4.957 10.482 4.705 C 10.532 4.639 10.501 4.671 10.557 4.63 C 10.715 4.515 11.426 4.012 11.776 3.909 C 12.04 3.831 12.289 3.842 12.473 3.909 C 12.634 3.966 12.766 4.073 12.847 4.232 C 12.946 4.428 12.803 4.834 12.946 5.053 C 13.1 5.29 13.582 5.323 13.792 5.576 C 14.015 5.844 13.957 6.343 14.215 6.646 C 14.506 6.988 15.291 7.249 15.534 7.467 C 15.674 7.594 15.704 7.724 15.758 7.791 C 15.79 7.83 15.81 7.824 15.833 7.865 C 15.87 7.931 15.889 8.123 15.932 8.189 C 15.961 8.233 15.986 8.202 16.032 8.264 C 16.155 8.427 16.556 9.369 16.679 9.533 C 16.725 9.595 16.735 9.548 16.779 9.607 C 16.887 9.754 17.096 10.449 17.301 10.678 C 17.457 10.851 17.685 10.851 17.824 10.976 C 17.955 11.094 18.063 11.228 18.122 11.399 C 18.19 11.593 18.214 11.938 18.172 12.096 C 18.143 12.207 18.098 12.267 17.998 12.32 C 17.853 12.397 17.588 12.417 17.301 12.42 C 16.918 12.424 16.419 12.228 15.858 12.27 C 15.468 12.3 14.972 12.452 14.481 12.598 C 14.558 12.749 14.531 12.928 14.499 13.092 C 14.46 13.29 14.286 13.34 14.2 13.689 C 14.159 13.856 14.126 14.11 14.098 14.414 C 14.224 14.353 14.424 14.304 14.544 14.311 Z" style="fill: rgb(192, 132, 252); fill-opacity: 1; fill-rule: nonzero; stroke: none; stroke-dasharray: none; stroke-dashoffset: 0px; stroke-linecap: butt; stroke-linejoin: miter; stroke-miterlimit: 4; stroke-opacity: 1; stroke-width: 1px; paint-order: normal; vector-effect: none; opacity: 1; mix-blend-mode: normal; isolation: auto;"/>
</svg>